<svg xmlns="http://www.w3.org/2000/svg" width="1100" height="760" viewBox="0 0 1100 760">
<rect width="100%" height="100%" fill="white"/>
<text x="550" y="40" text-anchor="middle" font-family="Arial" font-size="28" font-weight="bold">IAI SLE2 - BFS / DFS Graph (A to W)</text>
<g stroke="#333" stroke-width="3" fill="none">
<line x1="550" y1="90" x2="330" y2="180"/><line x1="550" y1="90" x2="770" y2="180"/>
<line x1="330" y1="180" x2="220" y2="290"/><line x1="330" y1="180" x2="440" y2="290"/>
<line x1="770" y1="180" x2="660" y2="290"/><line x1="770" y1="180" x2="880" y2="290"/>
<line x1="220" y1="290" x2="220" y2="400"/><line x1="440" y1="290" x2="440" y2="400"/>
<line x1="660" y1="290" x2="600" y2="400"/><line x1="660" y1="290" x2="720" y2="400"/>
<line x1="880" y1="290" x2="830" y2="400"/><line x1="880" y1="290" x2="930" y2="400"/>
<line x1="220" y1="400" x2="220" y2="510"/>
<line x1="440" y1="400" x2="380" y2="510"/><line x1="440" y1="400" x2="500" y2="510"/>
<line x1="380" y1="510" x2="320" y2="620"/><line x1="500" y1="510" x2="450" y2="620"/><line x1="500" y1="510" x2="550" y2="620"/>
<line x1="320" y1="620" x2="320" y2="690"/>
</g>
<g font-family="Arial" font-size="20" text-anchor="middle">
<circle cx="550" cy="90" r="28" fill="white" stroke="#333" stroke-width="3"/><text x="550" y="97">A</text>
<circle cx="330" cy="180" r="28" fill="white" stroke="#333" stroke-width="3"/><text x="330" y="187">C</text>
<circle cx="770" cy="180" r="28" fill="white" stroke="#333" stroke-width="3"/><text x="770" y="187">B</text>
<circle cx="220" cy="290" r="28" fill="white" stroke="#333" stroke-width="3"/><text x="220" y="297">G</text>
<circle cx="440" cy="290" r="28" fill="white" stroke="#333" stroke-width="3"/><text x="440" y="297">H</text>
<circle cx="660" cy="290" r="28" fill="white" stroke="#333" stroke-width="3"/><text x="660" y="297">D</text>
<circle cx="880" cy="290" r="28" fill="white" stroke="#333" stroke-width="3"/><text x="880" y="297">E</text>
<circle cx="220" cy="400" r="28" fill="white" stroke="#333" stroke-width="3"/><text x="220" y="407">O</text>
<circle cx="440" cy="400" r="28" fill="white" stroke="#333" stroke-width="3"/><text x="440" y="407">K</text>
<circle cx="600" cy="400" r="28" fill="white" stroke="#333" stroke-width="3"/><text x="600" y="407">F</text>
<circle cx="720" cy="400" r="28" fill="white" stroke="#333" stroke-width="3"/><text x="720" y="407">L</text>
<circle cx="830" cy="400" r="28" fill="white" stroke="#333" stroke-width="3"/><text x="830" y="407">I</text>
<circle cx="930" cy="400" r="28" fill="white" stroke="#333" stroke-width="3"/><text x="930" y="407">J</text>
<circle cx="220" cy="510" r="28" fill="white" stroke="#333" stroke-width="3"/><text x="220" y="517">W</text>
<circle cx="380" cy="510" r="28" fill="white" stroke="#333" stroke-width="3"/><text x="380" y="517">P</text>
<circle cx="500" cy="510" r="28" fill="white" stroke="#333" stroke-width="3"/><text x="500" y="517">M</text>
<circle cx="320" cy="620" r="28" fill="white" stroke="#333" stroke-width="3"/><text x="320" y="627">Q</text>
<circle cx="450" cy="620" r="28" fill="white" stroke="#333" stroke-width="3"/><text x="450" y="627">N</text>
<circle cx="550" cy="620" r="28" fill="white" stroke="#333" stroke-width="3"/><text x="550" y="627">V</text>
<circle cx="320" cy="690" r="28" fill="white" stroke="#333" stroke-width="3"/><text x="320" y="697">S</text>
</g>
<text x="720" y="520" font-family="Arial" font-size="18">Other leaf nodes: T, U</text>
<text x="720" y="550" font-family="Arial" font-size="18">BFS path: A → C → G → O → W</text>
<text x="720" y="580" font-family="Arial" font-size="18">DFS path: A → C → G → O → W</text>
</svg>